<svg id="Capa_1" enable-background="new 0 0 512 512" height="512" viewBox="0 0 512 512" width="512" xmlns="http://www.w3.org/2000/svg"><g><g><path d="m319.407 91.586c17.909.851 33.819 3.167 47.288 6.884.667.185 1.339.272 1.999.272 3.29 0 6.308-2.182 7.226-5.506 1.103-3.993-1.241-8.123-5.234-9.225-14.536-4.013-31.55-6.505-50.567-7.408-4.136-.21-7.651 2.998-7.847 7.136-.198 4.137 2.998 7.65 7.135 7.847z"/><path d="m319.406 125.723c17.912.851 33.821 3.167 47.289 6.884.667.185 1.339.272 1.999.272 3.29 0 6.308-2.182 7.226-5.506 1.103-3.993-1.241-8.123-5.234-9.225-14.535-4.012-31.549-6.504-50.566-7.409-4.17-.192-7.652 2.998-7.848 7.136-.198 4.137 2.998 7.651 7.134 7.848z"/><path d="m319.406 163.341c17.911.851 33.821 3.167 47.289 6.884.668.185 1.339.272 1.999.272 3.29 0 6.309-2.182 7.226-5.507 1.103-3.993-1.241-8.123-5.234-9.225-14.535-4.012-31.549-6.504-50.566-7.408-4.17-.189-7.652 2.998-7.848 7.136-.198 4.137 2.998 7.651 7.134 7.848z"/><path d="m475.812 76.603c-19.018.903-36.031 3.396-50.567 7.408-3.993 1.102-6.337 5.232-5.234 9.225.918 3.325 3.936 5.506 7.226 5.506.66 0 1.332-.088 1.999-.272 13.469-3.717 29.379-6.033 47.288-6.884 4.138-.197 7.333-3.71 7.136-7.848-.198-4.137-3.712-7.321-7.848-7.135z"/><path d="m475.811 110.739c-19.018.904-36.031 3.396-50.566 7.409-3.993 1.102-6.337 5.232-5.234 9.225.918 3.325 3.936 5.506 7.226 5.506.66 0 1.332-.088 1.999-.272 13.468-3.717 29.377-6.033 47.289-6.884 4.137-.197 7.332-3.71 7.135-7.848-.198-4.138-3.678-7.32-7.849-7.136z"/><path d="m448.445 150.962c-8.308 1.231-16.114 2.847-23.201 4.803-3.993 1.102-6.337 5.232-5.234 9.225.918 3.326 3.936 5.507 7.226 5.507.66 0 1.332-.088 1.999-.272 6.501-1.794 13.704-3.282 21.41-4.424 4.097-.607 6.927-4.421 6.319-8.518-.608-4.099-4.425-6.928-8.519-6.321z"/><path d="m344.259 287.72c-.027-7.574-5.463-13.689-12.344-15.031-1.405-4.398-3.194-8.672-5.342-12.761 3.909-5.984 3.22-14.116-2.04-19.339l-12.714-12.625c-5.422-5.384-13.59-5.711-19.311-1.849-4.094-2.112-8.37-3.866-12.768-5.237-1.388-6.862-7.52-12.238-15.062-12.238-.019 0-.037 0-.056 0l-17.862.062c-7.603.026-13.698 5.492-15.033 12.343-4.398 1.405-8.673 3.194-12.76 5.342-5.983-3.908-14.115-3.22-19.339 2.041l-12.571 12.658c-5.355 5.394-5.77 13.543-1.892 19.344-2.117 4.1-3.875 8.383-5.248 12.789-6.854 1.385-12.265 7.527-12.238 15.118l.062 17.863c.025 7.592 5.477 13.692 12.343 15.032 1.403 4.394 3.19 8.663 5.335 12.747-3.885 5.878-3.332 14.012 2.012 19.317l12.639 12.551c5.252 5.215 13.406 5.863 19.381 1.938 4.107 2.122 8.397 3.883 12.809 5.259 1.385 6.848 7.508 12.238 15.062 12.238h.056l17.864-.062c7.575-.027 13.699-5.472 15.038-12.346 4.392-1.403 8.66-3.19 12.745-5.335 5.816 3.83 13.966 3.375 19.331-2.028l12.604-12.693c5.308-5.346 5.801-13.482 1.878-19.332 2.115-4.099 3.873-8.381 5.245-12.784 6.855-1.387 12.263-7.525 12.238-15.118zm-15.427 18.285c-4.861.057-9.151 3.368-10.432 8.053-1.385 5.067-3.392 9.959-5.964 14.538-2.354 4.188-1.674 9.509 1.625 12.912.191.2.538.456.254.741l-12.604 12.694c-.123.121-.343.17-.501.018l-.229-.225c-3.456-3.301-8.781-3.942-12.95-1.562-4.563 2.605-9.44 4.646-14.495 6.066-4.678 1.312-7.96 5.626-7.981 10.524-.055.1.124.454-.365.456l-17.864.062s-.001 0-.002 0c-.461 0-.36-.451-.377-.897-.18-4.73-3.412-8.759-8.041-10.024-5.064-1.383-9.954-3.39-14.535-5.962-7.326-4.113-13.01 1.767-13.11 1.814-.176.163-.449.16-.619-.009l-12.642-12.551c-.126-.126-.16-.322.056-.536l.171-.175c3.299-3.454 3.941-8.779 1.561-12.952-2.606-4.565-4.647-9.444-6.067-14.5-1.294-4.613-5.34-7.815-10.068-7.967-.463-.015-.909.092-.909-.373l-.062-17.864c0-.494.385-.315.485-.368 4.864-.056 9.155-3.368 10.436-8.055 1.385-5.066 3.391-9.956 5.963-14.534 2.354-4.189 1.674-9.513-1.661-12.953-.06-.101-.537-.378-.201-.719l12.571-12.659c.146-.148.385-.154.539-.014.017.017.034.034.051.05 3.482 3.42 8.908 4.104 13.202 1.662 4.533-2.58 9.379-4.603 14.403-6.013 4.677-1.313 7.958-5.627 7.979-10.523l-.002-.177h.001c-.004-.112.143-.278.366-.279l17.863-.062h.002c.464 0 .357.443.378.907.184 4.726 3.413 8.75 8.036 10.012 5.068 1.384 9.961 3.391 14.543 5.965 4.185 2.351 9.508 1.672 12.951-1.662.132-.058.357-.562.664-.255l12.714 12.625c.359.355-.129.645-.186.745-3.304 3.455-3.946 8.782-1.564 12.956 2.605 4.563 4.646 9.441 6.065 14.497 1.295 4.614 5.34 7.817 10.072 7.969.463.014.907-.09.907.374l.062 17.862c0 .496-.389.316-.489.368z"/><path d="m223.512 264.473c-17.913 17.914-17.913 47.062 0 64.977 17.914 17.914 47.063 17.915 64.978 0 17.913-17.915 17.913-47.063 0-64.977-17.956-17.956-47.021-17.958-64.978 0zm54.37 54.37c-12.063 12.065-31.697 12.067-43.763 0-12.065-12.066-12.065-31.698 0-43.764 12.094-12.094 31.668-12.095 43.763 0 12.065 12.066 12.065 31.698 0 43.764z"/><path d="m489.327 207.452c12.502-.078 22.673-10.323 22.673-22.839v-131.408c0-8.994-7.308-16.421-16.29-16.556-30.43-.468-70.463 3.36-96.81 18.391-.478.273-1.095.26-1.611-.034-26.403-15.035-66.401-18.808-96.742-18.357-8.986.136-16.297 7.563-16.297 16.557v120.271h-196.843c-8.047 0-14.593 6.546-14.593 14.592v217.38h-19v-231.04c0-10.991 8.941-19.932 19.933-19.932h182.94c4.143 0 7.5-3.358 7.5-7.5s-3.357-7.5-7.5-7.5h-182.94c-19.262 0-34.933 15.67-34.933 34.932v231.04h-17.426c-11.793-.002-21.388 9.593-21.388 21.386 0 26.773 21.781 48.554 48.554 48.554h414.893c26.772 0 48.554-21.781 48.554-48.554 0-11.793-9.595-21.387-21.388-21.387h-17.427v-169.863c0-4.142-3.357-7.5-7.5-7.5s-7.5 3.358-7.5 7.5v169.863h-19v-193.116c18.715-3.928 37.901-4.805 50.141-4.88zm-190.077-154.247c0-.847.684-1.546 1.522-1.559 17.663-.258 61.712.801 89.095 16.394.249.142.503.271.758.399v138.971c-25.91-12.106-61.396-15.343-89.812-14.934-.009 0-.017 0-.024 0-.839 0-1.538-.685-1.538-1.559v-137.712zm-211.436 135.271h196.436v2.442c0 9.168 7.461 16.683 16.773 16.557 16.296-.224 57.161.696 84.724 14.22 7.712 3.784 17.026 3.795 24.757 0 4.287-2.104 8.898-3.896 13.682-5.434v189.188h-336.372zm223.712 231.971c-2.973 7.303-10.138 12.471-18.496 12.471h-74.059c-8.359 0-15.524-5.167-18.496-12.471zm179.086 0c3.522 0 6.388 2.865 6.388 6.387 0 18.502-15.052 33.554-33.554 33.554h-414.892c-18.502.001-33.554-15.052-33.554-33.553 0-3.522 2.865-6.387 6.388-6.387h163.431c3.443 15.689 17.444 27.471 34.152 27.471h74.059c16.708 0 30.709-11.781 34.152-27.471 33.68-.001 126.756-.001 163.43-.001zm-84.987-213.037v-138.969c.238-.121.476-.241.709-.374 27.38-15.62 71.45-16.689 89.15-16.421.836.013 1.516.711 1.516 1.558v131.408c0 4.223-3.556 7.813-7.765 7.839-26.698.166-59.529 3.724-83.61 14.959z"/></g></g></svg>